<?xml version="1.0" standalone="no"?>
<!DOCTYPE svg PUBLIC "-//W3C//DTD SVG 20010904//EN"
 "http://www.w3.org/TR/2001/REC-SVG-20010904/DTD/svg10.dtd">
<svg version="1.0" xmlns="http://www.w3.org/2000/svg"
 width="1024.000000pt" height="1024.000000pt" viewBox="0 0 1024.000000 1024.000000"
 preserveAspectRatio="xMidYMid meet">

<g transform="translate(0.000000,1024.000000) scale(0.100000,-0.100000)"
fill="#000000" stroke="none">
<path d="M0 5120 l0 -5120 5120 0 5120 0 0 5120 0 5120 -5120 0 -5120 0 0
-5120z m5480 3685 c655 -63 1253 -287 1797 -672 418 -295 797 -706 1040 -1128
153 -264 327 -693 397 -975 76 -309 100 -526 100 -920 1 -327 -12 -470 -65
-731 -144 -718 -478 -1339 -998 -1860 -404 -404 -848 -690 -1356 -874 -827
-300 -1716 -297 -2535 6 -175 65 -481 216 -643 318 -409 256 -771 589 -1064
978 -255 340 -473 774 -587 1170 -229 797 -184 1683 124 2433 86 208 189 401
327 614 281 431 583 735 1053 1058 469 323 1127 544 1760 591 128 10 520 5
650 -8z"/>
<path d="M4920 8524 c-600 -44 -1143 -220 -1663 -542 -204 -125 -401 -287
-608 -498 -163 -167 -266 -290 -359 -429 -325 -485 -486 -906 -567 -1486 -21
-156 -25 -611 -5 -769 56 -452 165 -818 357 -1195 359 -708 1010 -1315 1740
-1621 66 -28 75 -30 50 -12 -227 172 -470 394 -589 537 -310 374 -535 892
-613 1416 -26 173 -26 690 0 855 63 403 218 766 473 1106 369 491 862 864
1359 1028 818 271 1746 -28 2209 -712 74 -110 175 -318 215 -444 59 -186 82
-325 88 -533 4 -120 1 -229 -6 -295 -44 -380 -190 -758 -403 -1041 -127 -169
-339 -367 -496 -464 -34 -21 -61 -40 -58 -42 2 -2 75 20 162 48 447 147 863
453 1168 859 191 253 298 432 391 655 102 242 146 441 166 741 74 1136 -388
2000 -1328 2482 -350 179 -704 285 -1123 337 -125 15 -456 26 -560 19z"/>
<path d="M7979 7011 c67 -160 126 -374 161 -581 33 -196 43 -367 37 -625 -12
-508 -66 -744 -259 -1129 -222 -444 -545 -854 -854 -1086 -371 -279 -737 -433
-1192 -500 -924 -136 -1839 226 -2296 910 -125 186 -231 437 -276 651 -80 386
-41 808 106 1127 18 40 29 70 24 67 -18 -11 -157 -202 -212 -292 -114 -184
-203 -386 -253 -576 -127 -480 -100 -1060 70 -1523 52 -143 192 -421 276 -549
257 -394 678 -738 1153 -940 374 -160 805 -242 1136 -216 665 53 1352 385
1908 925 417 405 687 830 862 1356 134 402 187 791 169 1245 -20 542 -212
1170 -519 1700 -67 117 -78 126 -41 36z"/>
<path d="M4860 6755 c-431 -74 -811 -332 -1073 -730 -124 -189 -206 -387 -254
-614 -25 -115 -27 -146 -27 -351 0 -207 2 -235 27 -351 77 -364 250 -656 535
-905 366 -320 911 -476 1362 -389 478 93 911 426 1139 875 184 363 239 760
166 1185 -81 470 -392 883 -833 1105 -272 136 -502 191 -800 189 -92 -1 -201
-7 -242 -14z"/>
</g>
</svg>
